# xmcd
#
# Track frame offsets: 
#        150
#        11392
#        34635
#        43477
#        57777
#        92407
#        112892
#        133205
#        144560
#        169185
#        192055
#        225157
#        264787
#        288627
#        297192
#        327805
#
# Disc length: 4604 seconds
#
# Revision: 0
# Processed by: cddbd v1.5.2PL0 Copyright (c) Steve Scherf et al.
# Submitted via: ExactAudioCopy v0.95b4
#
DISCID=d611fa10
DTITLE=Stevie Ray Vaughan - Seattle 1985 Live - Seattle Center Coliseu
DTITLE=m -  9-1-85
DYEAR=1985
DGENRE=Blues
TTITLE0=Scuttle Buttin'
TTITLE1=Say What
TTITLE2=Lookin' Out the Window
TTITLE3=Look at Little Sister
TTITLE4=Give Up On Love
TTITLE5=Change It
TTITLE6=You'll Be Mine
TTITLE7=Empty Arms
TTITLE8=Come On (Part III)
TTITLE9=Cold Shot
TTITLE10=Couldn't Stand the Weather
TTITLE11=Life Without You
TTITLE12=Pride and Joy
TTITLE13=Bonnie Raitt Intro Theme
TTITLE14=Texas Flood
TTITLE15=Testify
EXTD=
EXTT0=
EXTT1=
EXTT2=
EXTT3=
EXTT4=
EXTT5=
EXTT6=
EXTT7=
EXTT8=
EXTT9=
EXTT10=
EXTT11=
EXTT12=
EXTT13=
EXTT14=
EXTT15=
PLAYORDER=
